<?xml version="1.0" encoding="utf-8"?>
<svg version="1.1" xmlns:xlink="http://www.w3.org/1999/xlink" width="165px" height="99px" xmlns="http://www.w3.org/2000/svg">
  <g transform="matrix(1 0 0 1 -38 -723 )">
    <path d="M 38 723  L 203 723  L 203 822  L 38 822  L 38 723  " fill-rule="nonzero" fill="#cccccc" stroke="none" />
    <path d="M 45 730  L 196 730  L 196 815  L 45 815  L 45 730  " fill-rule="nonzero" fill="#ffffff" stroke="none" />
    <path d="M 131.225 752.7  C 127.067 752.7  123.8 749.433  123.8 745.275  C 123.8 741.117  127.067 737.85  131.225 737.85  C 135.383 737.85  138.65 741.117  138.65 745.275  C 138.65 749.433  135.383 752.7  131.225 752.7  " fill-rule="nonzero" fill="#cccccc" stroke="none" />
    <path d="M 48 813  L 48 769  L 84.5 749  L 135.6 784.2  L 164.8 761  L 194 784.2  L 194 813  L 48 813  " fill-rule="nonzero" fill="#169bd5" stroke="none" />
  </g>
</svg>